{"title":"Vampire.Boys.2011.DVDRip.XviD-SPRiNTER [NoRar]","uid":6231636,"size":733399714,"categoryP":"video","categoryS":"movies","magnet":"?xt=urn:btih:7f74ff6932834af2e97bab0f8f92b01fdb091059&amp;dn=Vampire.Boys.2011.DVDRip.XviD-SPRiNTER+%5BNoRar%5D&amp;tr=udp%3A%2F%2Ftracker.openbittorrent.com%3A80&amp;tr=udp%3A%2F%2Fopen.demonii.com%3A1337&amp;tr=udp%3A%2F%2Ftracker.coppersurfer.tk%3A6969&amp;tr=udp%3A%2F%2Fexodus.desync.com%3A6969","seeders":1,"leechers":0,"uploader":"hiest","files":-1,"time":1299726724,"description":"\n ######  ########  ########  #### ##    ## ######## ######## ########  \n##    ## ##     ## ##     ##  ##  ###   ##    ##    ##       ##     ## \n##       ##     ## ##     ##  ##  ####  ##    ##    ##       ##     ## \n ######  ########  ########   ##  ## ## ##    ##    ######   ########  \n      ## ##        ##   ##    ##  ##  ####    ##    ##       ##   ##   \n##    ## ##        ##    ##   ##  ##   ###    ##    ##       ##    ##  \n ######  ##        ##     ## #### ##    ##    ##    ######## ##     ## \n\n \n Vampire.Boys.2011.DVDRip.XviD-SPRiNTER\n &lt;a href=&quot; http://www.imdb.com/title/tt1781947/&quot; rel=&quot;nofollow&quot; target=&quot;_NEW&quot;&gt; http://www.imdb.com/title/tt1781947/&lt;/a&gt;\n Subtitles: N/A\n\n Date: 2011.03\n Genre: Horror | Romance\n\nFormat                           : AVI\nFormat/Info                      : Audio Video Interleave\nFile size                        : 699 MiB\nDuration                         : 1h 9mn\nOverall bit rate                 : 1 397 Kbps\nWriting application              : VirtualDubMod 1.5.10.2 (build 2540/release)\nWriting library                  : VirtualDubMod build 2540/release\n\nVideo\nID                               : 0\nFormat                           : MPEG-4 Visual\nFormat profile                   : Advanced Simple@L5\nFormat settings, BVOP            : 2\nFormat settings, QPel            : No\nFormat settings, GMC             : No warppoints\nFormat settings, Matrix          : Default (H.263)\nCodec ID                         : XVID\nCodec ID/Hint                    : XviD\nDuration                         : 1h 9mn\nBit rate                         : 1 196 Kbps\nWidth                            : 608 pixels\nHeight                           : 256 pixels\nDisplay aspect ratio             : 2.35:1\nFrame rate                       : 23.976 fps\nColor space                      : YUV\nChroma subsampling               : 4:2:0\nBit depth                        : 8 bits\nScan type                        : Progressive\nCompression mode                 : Lossy\nBits/(Pixel*Frame)               : 0.320\nStream size                      : 599 MiB (86%)\nWriting library                  : XviD 1.1.2 (UTC 2006-11-01)\n\nAudio\nID                               : 1\nFormat                           : AC-3\nFormat/Info                      : Audio Coding 3\nMode extension                   : CM (complete main)\nCodec ID                         : 2000\nDuration                         : 1h 9mn\nBit rate mode                    : Constant\nBit rate                         : 192 Kbps\nChannel(s)                       : 2 channels\nChannel positions                : Front: L R\nSampling rate                    : 48.0 KHz\nBit depth                        : 16 bits\nCompression mode                 : Lossy\nStream size                      : 96.1 MiB (14%)\nAlignment                        : Split accross interleaves\nInterleave, duration             : 42 ms (1.00 video frame)\nInterleave, preload duration     : 500 ms\n\n\n\n\n\n================================== &lt;a href=&quot;\nhttp://thepiratebay.se/user/hiest&quot; rel=&quot;nofollow&quot; target=&quot;_NEW&quot;&gt;\nhttp://thepiratebay.se/user/hiest&lt;/a&gt;\n==================================\n\n\n\n\n\nScreen Shots:\n &lt;a href=&quot;\nhttp://leetleech.org/images/23180282645676540954.png&quot; rel=&quot;nofollow&quot; target=&quot;_NEW&quot;&gt;\nhttp://leetleech.org/images/23180282645676540954.png&lt;/a&gt;\n &lt;a href=&quot;\nhttp://leetleech.org/images/29584411472565310875.png&quot; rel=&quot;nofollow&quot; target=&quot;_NEW&quot;&gt;\nhttp://leetleech.org/images/29584411472565310875.png&lt;/a&gt;\n &lt;a href=&quot;\nhttp://leetleech.org/images/20788872266585761779.png&quot; rel=&quot;nofollow&quot; target=&quot;_NEW&quot;&gt;\nhttp://leetleech.org/images/20788872266585761779.png&lt;/a&gt;\n &lt;a href=&quot;\nhttp://leetleech.org/images/35286888294037625641.png&quot; rel=&quot;nofollow&quot; target=&quot;_NEW&quot;&gt;\nhttp://leetleech.org/images/35286888294037625641.png&lt;/a&gt;\n\n\n\n ######  ########  ########  #### ##    ## ######## ######## ########  \n##    ## ##     ## ##     ##  ##  ###   ##    ##    ##       ##     ## \n##       ##     ## ##     ##  ##  ####  ##    ##    ##       ##     ## \n ######  ########  ########   ##  ## ## ##    ##    ######   ########  \n      ## ##        ##   ##    ##  ##  ####    ##    ##       ##   ##   \n##    ## ##        ##    ##   ##  ##   ###    ##    ##       ##    ##  \n ######  ##        ##     ## #### ##    ##    ##    ######## ##     ## ","torrent":{"xt":"urn:btih:7f74ff6932834af2e97bab0f8f92b01fdb091059","amp;dn":"Vampire.Boys.2011.DVDRip.XviD-SPRiNTER+%5BNoRar%5D","amp;tr":["udp%3A%2F%2Ftracker.openbittorrent.com%3A80","udp%3A%2F%2Fopen.demonii.com%3A1337","udp%3A%2F%2Ftracker.coppersurfer.tk%3A6969","udp%3A%2F%2Fexodus.desync.com%3A6969"],"infoHash":"7f74ff6932834af2e97bab0f8f92b01fdb091059","infoHashBuffer":{"type":"Buffer","data":[127,116,255,105,50,131,74,242,233,123,171,15,143,146,176,31,219,9,16,89]},"announce":[],"urlList":[]}}